<?xml version="1.0" encoding="utf-8"?>
<!-- Generator: Adobe Illustrator 16.0.0, SVG Export Plug-In . SVG Version: 6.00 Build 0)  -->
<!DOCTYPE svg PUBLIC "-//W3C//DTD SVG 1.1//EN" "http://www.w3.org/Graphics/SVG/1.1/DTD/svg11.dtd">
<svg version="1.1" id="Ebene_1" xmlns="http://www.w3.org/2000/svg" xmlns:xlink="http://www.w3.org/1999/xlink" x="0px" y="0px"
	 width="14.173px" height="14.173px" viewBox="-2.184 2.105 14.173 14.173" enable-background="new -2.184 2.105 14.173 14.173"
	 xml:space="preserve">
<g>
	<path d="M1.263,7.659c-0.539-0.7-0.946-1.223-1.447-1.868c2.7-0.411,5.116-0.781,8.106-1.238c0.504,0.658,0.93,1.211,1.419,1.844
		C6.72,6.807,4.439,7.166,1.263,7.659z"/>
	<path d="M1.582,10.693c-0.54-0.7-0.943-1.224-1.448-1.867c2.697-0.412,5.114-0.781,8.107-1.239c0.504,0.658,0.93,1.209,1.419,1.844
		C7.041,9.841,4.76,10.198,1.582,10.693z"/>
	<path d="M1.918,13.831c-0.545-0.699-0.95-1.224-1.454-1.867c2.7-0.414,5.116-0.784,8.109-1.24c0.501,0.657,0.927,1.21,1.416,1.844
		C7.371,12.978,5.088,13.336,1.918,13.831z"/>
</g>
</svg>
